<?xml version="1.0" standalone="no"?><!DOCTYPE svg PUBLIC "-//W3C//DTD SVG 1.1//EN" "http://www.w3.org/Graphics/SVG/1.1/DTD/svg11.dtd"><svg t="1753331828472" class="icon" viewBox="0 0 1024 1024" version="1.1" xmlns="http://www.w3.org/2000/svg" p-id="2550" xmlns:xlink="http://www.w3.org/1999/xlink" width="200" height="200"><path d="M832 25.6H192c-51.2 0-83.2 38.4-83.2 89.6v800c0 51.2 38.4 83.2 83.2 83.2h640c51.2 0 83.2-38.4 83.2-83.2v-800c0-51.2-32-89.6-83.2-89.6zM256 742.4c-12.8 0-25.6-12.8-25.6-25.6s12.8-25.6 25.6-25.6 25.6 12.8 25.6 25.6-12.8 25.6-25.6 25.6z m0-224c-25.6 0-38.4-12.8-38.4-25.6s12.8-25.6 25.6-25.6 25.6 12.8 25.6 25.6 0 25.6-12.8 25.6z m0-224c-12.8 0-25.6-12.8-25.6-25.6s12.8-25.6 25.6-25.6 25.6 12.8 25.6 25.6-12.8 25.6-25.6 25.6z m524.8 448H416c-12.8 0-38.4-12.8-38.4-38.4 0-12.8 12.8-38.4 38.4-38.4h371.2c12.8 0 38.4 12.8 38.4 38.4-6.4 25.6-19.2 38.4-44.8 38.4z m0-224H416c-25.6 0-38.4-12.8-38.4-25.6s12.8-38.4 38.4-38.4h371.2c12.8 0 38.4 12.8 38.4 38.4-6.4 25.6-19.2 25.6-44.8 25.6z m0-224H416c-12.8 0-38.4-12.8-38.4-38.4 0-12.8 12.8-38.4 38.4-38.4h371.2c12.8 0 38.4 12.8 38.4 38.4s-19.2 38.4-44.8 38.4z" p-id="2551"></path></svg>