<svg width="16" height="16" viewBox="0 0 24 24" fill="none" xmlns="http://www.w3.org/2000/svg">
  <path d="M21.62 11.108L12.89 2.376C12.504 1.99 11.996 1.773 11.464 1.773C10.932 1.773 10.424 1.99 10.038 2.376L8.306 4.108L10.738 6.54C11.161 6.387 11.626 6.434 12.01 6.681C12.394 6.928 12.672 7.355 12.776 7.848C12.88 8.341 12.801 8.858 12.554 9.29C12.307 9.722 11.914 10.037 11.451 10.172V13.5C11.451 13.898 11.293 14.279 11.012 14.561C10.731 14.842 10.35 15 9.951 15C9.553 15 9.172 14.842 8.891 14.561C8.61 14.279 8.451 13.898 8.451 13.5V11.172C7.988 11.037 7.595 10.722 7.348 10.29C7.101 9.858 7.022 9.341 7.126 8.848C7.23 8.355 7.508 7.928 7.892 7.681C8.276 7.434 8.741 7.387 9.164 7.54L6.732 5.108L2.376 9.464C1.99 9.85 1.773 10.358 1.773 10.89C1.773 11.422 1.99 11.93 2.376 12.316L11.108 21.048C11.494 21.434 12.002 21.651 12.534 21.651C13.066 21.651 13.574 21.434 13.96 21.048L21.62 13.388C22.006 13.002 22.223 12.494 22.223 11.962C22.223 11.43 22.006 10.922 21.62 10.536L21.62 11.108Z" fill="currentColor"/>
</svg>
