<?xml version="1.0" standalone="no"?><!DOCTYPE svg PUBLIC "-//W3C//DTD SVG 1.1//EN" "http://www.w3.org/Graphics/SVG/1.1/DTD/svg11.dtd"><svg t="1753949158571" class="icon" viewBox="0 0 1024 1024" version="1.1" xmlns="http://www.w3.org/2000/svg" p-id="7222" xmlns:xlink="http://www.w3.org/1999/xlink" width="200" height="200"><path d="M814.51008 94.60736H209.46432c-42.47552 0-76.90752 34.3552-76.90752 76.71808v681.344c0 42.37312 34.432 76.7232 76.90752 76.7232h605.04576c42.47552 0 76.928-34.35008 76.928-76.7232V171.32544c0-42.368-34.44736-76.71808-76.928-76.71808zM313.01632 208.72704h397.88032c15.80032 0 28.53888 16.83456 28.53888 37.57568 0 20.75136-12.77952 37.57568-28.53888 37.57568H313.01632c-15.80032 0-28.544-16.82432-28.544-37.57568 0.00512-20.74112 12.74368-37.57568 28.544-37.57568z m170.39872 644.0448H313.61536c-16.01024 0-28.99456-16.82432-28.99456-37.62688 0-20.74624 12.9792-37.52448 28.99456-37.52448h169.79456c16.03072 0 28.99456 16.77824 28.99456 37.52448 0.00512 20.80256-12.99456 37.62688-28.98944 37.62688z m76.96384-188.66688H311.89504c-15.4624 0-27.96544-17.17248-27.96544-38.38976 0-21.1968 12.50304-38.3232 27.96544-38.3232h248.48384c15.47776 0 27.9808 17.1264 27.9808 38.3232 0.00512 21.21728-12.50304 38.38976-27.9808 38.38976zM313.01632 398.3616h397.88032c15.80032 0 28.53888 16.82944 28.53888 37.59104 0 20.74112-12.77952 37.56544-28.53888 37.56544H313.01632c-15.80032 0-28.544-16.82432-28.544-37.56544 0.00512-20.7616 12.74368-37.59104 28.544-37.59104z m351.33952 419.66592l-73.0624 37.22752 1.54624-81.41312 209.19296-333.62432 71.49568 44.96384-209.17248 332.84608z" fill="#333333" p-id="7223"></path></svg>