<svg width="24" height="24" viewBox="0 0 24 24" fill="none" xmlns="http://www.w3.org/2000/svg">
  <path d="M12 2L15.09 5.26L19 4L20 8L16.91 9.74L17 14H15L14.5 10.26L12 9L9.5 10.26L9 14H7L7.09 9.74L4 8L5 4L8.91 5.26L12 2Z" fill="currentColor"/>
  <path d="M12 10C13.1046 10 14 10.8954 14 12C14 13.1046 13.1046 14 12 14C10.8954 14 10 13.1046 10 12C10 10.8954 10.8954 10 12 10Z" fill="currentColor"/>
  <path d="M8 16C8 16 9 15 12 15S16 16 16 16V20C16 21.1046 15.1046 22 14 22H10C8.89543 22 8 21.1046 8 20V16Z" fill="currentColor"/>
  <circle cx="12" cy="6" r="1" fill="currentColor"/>
</svg>
